<svg xmlns="http://www.w3.org/2000/svg" xmlns:xlink="http://www.w3.org/1999/xlink" id="Capa_1" x="0px" y="0px" viewBox="0 0 360.512 360.512" style="enable-background:new 0 0 360.512 360.512;" xml:space="preserve">
<g>
	<g>
		<path d="M247.132,100.872V51.25h-59.375V0h-15v51.25h-59.375v49.622H89.196v259.64h182.121v-259.64    C271.317,100.872,247.132,100.872,247.132,100.872z M128.382,66.25h103.75v34.622h-103.75V66.25z M256.317,345.512H104.196    v-229.64h9.186h133.75h9.186L256.317,345.512L256.317,345.512z"></path>
		<rect x="113.382" y="142.756" width="15" height="33.75"></rect>
		<rect x="152.756" y="142.756" width="15" height="33.75"></rect>
		<rect x="192.13" y="142.756" width="15" height="33.75"></rect>
		<rect x="231.504" y="142.756" width="15" height="33.75"></rect>
		<rect x="113.382" y="201.923" width="15" height="33.75"></rect>
		<rect x="152.756" y="201.923" width="15" height="33.75"></rect>
		<rect x="192.13" y="201.923" width="15" height="33.75"></rect>
		<rect x="231.504" y="201.923" width="15" height="33.75"></rect>
		<rect x="113.382" y="261.089" width="15" height="33.75"></rect>
		<rect x="152.756" y="261.089" width="15" height="33.75"></rect>
		<rect x="192.13" y="261.089" width="15" height="33.75"></rect>
		<rect x="231.504" y="261.089" width="15" height="33.75"></rect>
	</g>
	<g>
	</g>
	<g>
	</g>
	<g>
	</g>
	<g>
	</g>
	<g>
	</g>
	<g>
	</g>
	<g>
	</g>
	<g>
	</g>
	<g>
	</g>
	<g>
	</g>
	<g>
	</g>
	<g>
	</g>
	<g>
	</g>
	<g>
	</g>
	<g>
	</g>
</g>
<g>
</g>
<g>
</g>
<g>
</g>
<g>
</g>
<g>
</g>
<g>
</g>
<g>
</g>
<g>
</g>
<g>
</g>
<g>
</g>
<g>
</g>
<g>
</g>
<g>
</g>
<g>
</g>
<g>
</g>
</svg>