<svg xmlns="http://www.w3.org/2000/svg" xmlns:xlink="http://www.w3.org/1999/xlink" id="Layer_1" x="0px" y="0px" viewBox="0 0 512 512" style="enable-background:new 0 0 512 512;" xml:space="preserve">
<g>
	<g>
		<path d="M256,0C114.62,0,0,114.611,0,256c0,141.38,114.62,256,256,256c141.389,0,256-114.62,256-256C512,114.611,397.389,0,256,0z     M256,486.4C128.956,486.4,25.6,383.044,25.6,256S128.956,25.6,256,25.6S486.4,128.956,486.4,256S383.044,486.4,256,486.4z"></path>
	</g>
</g>
<g>
	<g>
		<path d="M365.525,292.881c-2.398-2.125-5.598-3.2-9.6-3.2h-87.202v-20.002l14.003-18.005h74.001c3.729,0,6.665-1.203,8.798-3.601    c2.125-1.852,3.2-4.122,3.2-6.801c0-2.927-1.075-5.325-3.2-7.202c-2.398-2.125-5.598-3.2-9.6-3.2h-57.199l66.799-87.202    c2.125-3.729,2.799-7.202,1.997-10.402c-1.075-2.927-3.072-5.197-5.999-6.801c-3.2-1.604-6.4-1.997-9.6-1.203    c-3.738,0.802-6.673,3.072-8.798,6.801l-75.998,98.799h-21.197l-76.408-100.386c-2.133-3.2-4.941-5.052-8.397-5.598    c-3.2-0.529-6.135,0.154-8.798,1.997c-3.2,1.877-5.197,4.275-5.999,7.202c-1.075,3.2-0.401,6.554,1.997,10.001l65.604,86.801    h-56.405c-4.002,0-7.202,1.075-9.6,3.2c-2.133,1.877-3.2,4.275-3.2,7.202c0,2.671,1.067,4.949,3.2,6.801    c2.125,2.398,5.325,3.601,9.6,3.601h72.397l14.003,17.997v20.002h-86.4c-4.002,0-7.202,1.075-9.6,3.2    c-2.133,1.877-3.2,4.275-3.2,7.202c0,2.671,1.067,4.949,3.2,6.801c2.125,2.398,5.325,3.601,9.6,3.601h86.4v96    c0,4.002,1.203,7.322,3.601,10.001c2.398,2.125,5.325,3.2,8.798,3.2c3.2,0,5.999-1.075,8.397-3.2    c2.662-2.671,4.002-5.999,4.002-10.001v-96h88.004c3.729,0,6.665-1.203,8.798-3.601c2.125-1.852,3.2-4.122,3.2-6.801    C368.725,297.156,367.65,294.758,365.525,292.881z"></path>
	</g>
</g>
<g>
</g>
<g>
</g>
<g>
</g>
<g>
</g>
<g>
</g>
<g>
</g>
<g>
</g>
<g>
</g>
<g>
</g>
<g>
</g>
<g>
</g>
<g>
</g>
<g>
</g>
<g>
</g>
<g>
</g>
</svg>