<svg xmlns="http://www.w3.org/2000/svg" width="667" height="354" viewBox="0 0 667 354" fill="none"><g clip-path="url(#clip0_5_5)"><g filter="url(#filter0_d_5_5)"><path d="M666.716 298.824H650.372V320.449H645.56V256.512H626.33V294.736H619.112V314.7H612.195L612.2 183.897H609.398V151.752H604.393V124.799H603.299V183.897H598.945V124.799H597.856V151.752H592.841V183.897H590.028V262.767H584.018V323.335H574.242V284.121H569.815V237.761H563.94V175.188H560.252V110.423H556.565V58.896H552.909V41.224H550.7V18.412H547.013V0H544.805V18.412H544.06V34.6H541.867V50.048H537.445V102.313H538.185V110.407L537.445 110.412V153.828H534.482V217.87H531.544V239.176H519.117V218.988H516.221V239.176H510.466V262.255H497.476V293.979H486.435V234.375L475.841 234.38V187.765H461.409V207.479H443.138V257.005H431.138V317.812H427.414L420.576 179.345H397.827L390.978 317.812H379.696V269.49H362.374V320.703H354.447V293.291H343.697L343.691 186.561H338.905V182.082H341.66V169.671H339.957V166.535H336.291V164.171H337.473V162.874H336.822C336.822 162.874 336.426 154.504 332.895 152.145C330.228 150.353 328.087 149.025 327.197 147.577V142.905L326.285 142.895V147.577C325.405 149.025 323.259 150.353 320.603 152.14C317.056 154.499 316.676 162.869 316.676 162.869H316.035V164.166H317.207V166.53H313.551V169.666H311.843V182.077H314.593V186.556H309.806V223.77L285.228 195.207V288.956H275.124V319.232H265.035V328.618H254.993V315.633H259.676L259.671 157.7H248.665C255.358 155.304 260.978 150.669 263.217 143.533H257.754C252.28 146.335 245.009 146.455 238.696 146.221C229.342 145.914 219.863 141.591 215.139 133.637L209.696 128.2C209.248 130.195 208.952 132.268 208.889 134.419C208.478 146.299 215.967 154.225 225.389 157.695H209.186V315.628H213.874V333.669H210.942V325.732H195.067V283.899H187.14V261.544H171.28V219.008H164.061V261.544H154.691V280.299H148.926V232.7H132.327V281.747H116.463V222.601H109.973V216.112L96.9891 216.117V222.607H90.5151V275.252H73.1977V318.528H62.4999V176.621C62.4999 176.621 61.9478 177.001 61.0676 177.668V153.971L58.9009 150.393V179.357C58.2759 179.877 57.5103 180.497 56.7499 181.18V177.721C56.7499 177.721 36.4685 191.346 25.4739 221.085C19.5364 232.283 14.2447 245.626 10.9432 261.366C4.39626 295.82 13.3025 331.836 20.412 338.757L-1 338.762L-0.984375 354.325H666.656V348.335H666.713L666.716 298.824ZM416.049 185.824V338.757H402.341V185.824H416.049Z" fill="#B2988A"></path></g></g><defs><filter id="filter0_d_5_5" x="-5" y="0" width="675.716" height="362.325" color-interpolation-filters="sRGB"><feGaussianBlur stdDeviation="2"></feGaussianBlur></filter><clipPath id="clip0_5_5"><rect width="667" height="354" fill="white"></rect></clipPath></defs></svg>