<svg xmlns="http://www.w3.org/2000/svg" width="348" height="715" viewBox="0 0 348 715" fill="none"><path d="M189.667 265.453H108.579C109.428 266.302 110.282 267.156 111.131 268.005V235.208L108.579 237.76H175.152L172.949 236.495C178.048 247.068 182.803 257.801 187.209 268.683C188.428 271.693 193.365 270.38 192.131 267.323C187.558 256.032 182.646 244.886 177.355 233.917C176.975 233.125 175.995 232.651 175.152 232.651H108.578C107.188 232.651 106.026 233.812 106.026 235.203V268C106.026 269.391 107.188 270.553 108.578 270.553H189.666C192.958 270.558 192.958 265.453 189.667 265.453Z" fill="black"></path><path d="M228.613 408H119.957H108.572L111.124 410.552V301.531V285.4C110.275 286.249 109.421 287.103 108.572 287.952H196.421C195.598 287.327 194.781 286.702 193.963 286.077C209.099 326.52 219.436 368.604 226.156 411.233C226.667 414.478 231.583 413.098 231.078 409.874C224.359 367.249 214.021 325.166 198.885 284.718C198.484 283.64 197.635 282.843 196.426 282.843H108.577C107.186 282.843 106.025 284.004 106.025 285.395V394.417V410.547C106.025 411.938 107.186 413.099 108.577 413.099H217.233H228.618C231.905 413.104 231.905 408 228.613 408Z" fill="black"></path><path d="M234.6 570.493C233.225 601.353 230.303 632.149 225.548 662.671C223.694 674.587 221.699 686.567 218.902 698.307C219.725 697.682 220.543 697.057 221.36 696.432H114.724H108.579C109.427 697.281 110.282 698.135 111.131 698.984V589.891V570.489C110.282 571.338 109.428 572.192 108.579 573.041H217.735H237.147C240.438 573.041 240.438 567.937 237.147 567.937H127.991H108.579C107.188 567.937 106.026 569.099 106.026 570.489V679.583V698.984C106.026 700.375 107.188 701.536 108.579 701.536H215.215H221.36C222.465 701.536 223.558 700.76 223.819 699.661C226.616 687.916 228.595 675.943 230.465 664.025C235.324 633.061 238.303 601.796 239.699 570.489C239.85 567.203 234.746 567.212 234.6 570.493Z" fill="black"></path><path d="M237.72 550.533H128.485H108.579L111.131 553.086V444.07V427.939C110.282 428.788 109.428 429.642 108.579 430.491H217.267H231.152C230.303 429.642 229.449 428.788 228.6 427.939C234.084 469.418 236.084 511.267 235.168 553.084C235.095 556.376 240.199 556.371 240.272 553.084C241.188 511.267 239.188 469.418 233.704 427.939C233.522 426.559 232.683 425.387 231.152 425.387H122.464H108.579C107.188 425.387 106.026 426.548 106.026 427.939V536.955V553.086C106.026 554.476 107.188 555.638 108.579 555.638H217.813H237.72C241.012 555.638 241.012 550.533 237.72 550.533Z" fill="black"></path><path d="M278.773 240.56C278.409 244.612 271.466 243.362 268.737 243.362H249.278H220.409L222.612 244.628C220.607 241.034 218.565 237.466 216.482 233.914C215.747 235.195 215.013 236.477 214.279 237.753H246.221H267.273C270.081 237.753 278.393 236.305 278.773 240.56C279.065 243.81 284.169 243.841 283.878 240.56C283.237 233.425 277.575 232.649 271.867 232.649H250.564H214.278C212.346 232.649 211.09 234.815 212.075 236.487C214.158 240.034 216.2 243.607 218.205 247.201C218.642 247.982 219.523 248.466 220.408 248.466H253.596H272.315C277.914 248.466 283.263 247.409 283.878 240.56C284.174 237.279 279.065 237.31 278.773 240.56Z" fill="black"></path><path d="M237.16 251.573V257.594C238.009 256.745 238.863 255.891 239.712 255.042H226.754C227.488 255.464 228.223 255.886 228.957 256.308C227.894 254.292 226.821 252.282 225.728 250.287C224.993 251.568 224.259 252.849 223.525 254.125H239.713C243.004 254.125 243.004 249.021 239.713 249.021H223.525C221.551 249.021 220.399 251.178 221.321 252.86C222.415 254.86 223.488 256.865 224.551 258.881C224.962 259.667 225.884 260.146 226.754 260.146H239.712C241.103 260.146 242.264 258.985 242.264 257.594V251.573C242.264 248.282 237.16 248.282 237.16 251.573Z" fill="black"></path><path d="M233.107 248.467H253.852C253.118 247.185 252.383 245.904 251.649 244.628C248.305 250.279 244.956 255.93 241.607 261.581H246.014C242.446 255.93 238.873 250.279 235.305 244.628C233.555 241.852 229.133 244.415 230.899 247.206C234.467 252.857 238.04 258.508 241.607 264.16C242.623 265.769 245.014 265.847 246.014 264.16C249.357 258.509 252.706 252.857 256.055 247.206C257.045 245.54 255.779 243.368 253.852 243.368H233.107C229.815 243.363 229.815 248.467 233.107 248.467Z" fill="black"></path><path d="M71.36 11.9173V76.5627C72.6412 75.8283 73.9225 75.0939 75.1985 74.3596C69.3704 70.0627 63.4641 65.7763 57.2559 62.0419C57.6777 62.7762 58.0996 63.5107 58.5215 64.2449V32.3076V14.6623C58.5215 13.2977 58.433 11.8863 58.6673 10.532C59.9955 2.93307 70.9747 4.73493 71.36 11.9173C71.5371 15.1881 76.6412 15.2092 76.4642 11.9175C76.0944 5.09453 70.8079 0.0581324 63.8912 0.459066C57.886 0.802812 53.412 6.3236 53.412 12.1309V34.4643V61.8443C53.412 64.2192 53.3808 65.6412 55.636 67.0525C61.4745 70.6932 67.0839 74.6984 72.62 78.7765C74.2293 79.964 76.4585 78.3495 76.4585 76.5735V11.9281C76.4637 8.626 71.36 8.62561 71.36 11.9173Z" fill="black"></path><path d="M53.56 64.2507C53.56 66.5632 57.0548 67.9381 58.7007 69.0111C63.4455 72.1152 68.06 75.4069 72.622 78.7715C74.2313 79.959 76.4605 78.3444 76.4605 76.5684C76.4605 74.2924 73.5699 73.058 71.997 71.9173C69.4032 70.0371 66.7781 68.2091 64.1272 66.4069C61.9189 64.9069 59.6897 63.4225 57.398 62.0476C54.5699 60.3497 52.0021 64.7664 54.8199 66.4539C60.9813 70.1517 66.8355 74.4069 72.6172 78.6621C72.1953 77.9278 71.7735 77.1933 71.3516 76.4591V76.5684C72.6328 75.8341 73.9141 75.0996 75.1901 74.3654C69.3984 70.0998 63.5235 65.9018 57.3928 62.1362C57.8147 62.8705 58.2365 63.605 58.6584 64.3392V64.2507C58.6636 60.959 53.56 60.9589 53.56 64.2507Z" fill="black"></path><path d="M237.72 550.533H128.485H108.579L111.131 553.086V444.07V427.939C110.282 428.788 109.428 429.642 108.579 430.491H217.267H231.152C230.303 429.642 229.449 428.788 228.6 427.939C234.084 469.418 236.084 511.267 235.168 553.084C235.095 556.376 240.199 556.371 240.272 553.084C241.188 511.267 239.188 469.418 233.704 427.939C233.522 426.559 232.683 425.387 231.152 425.387H122.464H108.579C107.188 425.387 106.026 426.548 106.026 427.939V536.955V553.086C106.026 554.476 107.188 555.638 108.579 555.638H217.813H237.72C241.012 555.638 241.012 550.533 237.72 550.533Z" fill="black"></path><path d="M108.573 287.947H196.423C195.6 287.322 194.782 286.697 193.964 286.072C209.1 326.514 219.438 368.598 226.158 411.228C226.981 410.15 227.798 409.071 228.616 407.999H119.96H108.575L111.127 410.551V301.529V285.399C111.127 282.107 106.023 282.107 106.023 285.399V394.42V410.551C106.023 411.941 107.184 413.103 108.575 413.103H217.231H228.616C230.418 413.103 231.33 411.483 231.075 409.874C224.356 367.248 214.017 325.166 198.881 284.718C198.48 283.639 197.631 282.843 196.423 282.843H108.573C105.282 282.843 105.282 287.947 108.573 287.947Z" fill="black"></path><path d="M106.773 132.8C140.304 173.712 167.352 219.66 187.211 268.68C188.034 267.602 188.851 266.524 189.669 265.451H108.581C109.43 266.3 110.284 267.154 111.133 268.003V159.014V130.998C111.133 127.706 106.029 127.706 106.029 130.998V239.987V268.003C106.029 269.394 107.191 270.555 108.581 270.555H189.669C191.18 270.555 192.768 268.894 192.128 267.326C171.92 217.43 144.513 170.842 110.382 129.193C108.299 126.646 104.705 130.276 106.773 132.802L106.773 132.8Z" fill="black"></path><path d="M228.96 256.307C195.22 192.291 148.949 134.219 93.0267 88.1733C87.2037 83.3764 81.2297 78.7774 75.1986 74.2466C73.5945 73.0435 71.3601 74.6841 71.3601 76.4497V76.5591C72.6414 75.8247 73.9226 75.0903 75.1986 74.356C69.4069 70.0904 63.532 65.8924 57.4013 62.1268C55.7399 61.106 53.5628 62.4289 53.5628 64.3299V167.127V235.195C53.5628 236.586 54.7242 237.747 56.1149 237.747H67.4795C72.6253 237.747 80.1826 236.586 80.667 243.904C81.1357 250.982 72.6461 250.049 68.1825 250.049H56.12C54.7293 250.049 53.5679 251.211 53.5679 252.602V306.826V432.686V574.966V678.46V698.976C53.5679 700.367 54.7293 701.528 56.12 701.528H108.589C109.98 701.528 111.141 700.367 111.141 698.976V589.883V570.482C110.293 571.331 109.438 572.185 108.589 573.034H217.745H237.157C236.308 572.185 235.454 571.331 234.605 570.482C233.23 601.342 230.308 632.138 225.553 662.659C223.699 674.576 221.704 686.555 218.907 698.295C218.527 699.899 219.662 701.524 221.366 701.524H276.606C277.684 701.524 278.84 700.753 279.064 699.649C295.777 618.619 301.517 535.089 290.762 452.863C282.455 389.352 264.163 327.327 235.866 269.836C233.631 265.299 231.324 260.794 228.965 256.309C227.428 253.398 223.027 255.976 224.559 258.887C253.96 314.751 273.537 375.319 283.449 437.634C296.303 518.467 292.413 601.341 277.444 681.581C276.402 687.164 275.293 692.732 274.147 698.294C274.97 697.669 275.788 697.044 276.605 696.419H221.365C222.188 697.497 223.006 698.575 223.824 699.648C226.621 687.903 228.6 675.93 230.47 664.012C235.329 633.048 238.308 601.783 239.704 570.476C239.767 569.086 238.496 567.924 237.152 567.924H127.996H108.584C107.193 567.924 106.032 569.086 106.032 570.476V679.57V698.971L108.584 696.419H56.1147L58.6668 698.971V644.747V518.887V376.607V273.112V252.596L56.1147 255.148H71.3653C73.7038 255.148 75.9123 255.216 78.1883 254.529C82.8913 253.107 85.4643 248.523 85.7716 243.898C86.0737 239.383 82.73 235.206 78.782 233.508C76.5684 232.555 74.2612 232.638 71.9123 232.638H56.1149L58.6671 235.19V132.393V64.3247C57.3858 65.0591 56.1045 65.7935 54.8285 66.5278C60.964 70.2934 66.8389 74.4914 72.6259 78.757C74.2352 79.9445 76.4644 78.3299 76.4644 76.5539V76.4445C75.1831 77.1789 73.9019 77.9133 72.6259 78.6476C123.741 117.017 167.157 165.393 201.511 219.194C209.746 232.09 217.429 245.345 224.558 258.877C226.089 261.794 230.495 259.215 228.964 256.304L228.96 256.307Z" fill="black"></path><path d="M80.6533 243.907C80.2679 249.704 75.5544 250.053 71.1845 250.053H58.2575H23.7468H13.1165C12.2311 250.053 11.3977 250.068 10.5124 249.912C3.29878 248.652 4.91345 238.219 11.8301 237.75C18.7467 237.282 25.8514 237.75 32.7781 237.75H62.5847C68.2774 237.756 80.1013 235.568 80.6533 243.907C80.8721 247.172 85.9757 247.193 85.7569 243.907C85.3298 237.49 80.6788 232.646 74.111 232.646H65.387H31.403H17.0964C14.8152 232.646 12.2318 232.355 9.97131 232.818C1.88277 234.474 -2.66418 244.563 3.23689 251.146C6.13796 254.386 9.78383 255.157 13.8828 255.157H54.9294H72.1588C79.2994 255.157 85.2317 251.766 85.7521 243.907C85.9761 240.62 80.872 240.641 80.6533 243.907Z" fill="black"></path><path d="M131.427 320.733H182.957C186.249 320.733 186.249 315.629 182.957 315.629H131.427C128.135 315.629 128.135 320.733 131.427 320.733Z" fill="black"></path><path d="M131.427 350.853H192.328C195.62 350.853 195.62 345.749 192.328 345.749H131.427C128.135 345.749 128.135 350.853 131.427 350.853Z" fill="black"></path><path d="M131.427 380.973H200.359C203.65 380.973 203.65 375.869 200.359 375.869H131.427C128.135 375.869 128.135 380.973 131.427 380.973Z" fill="black"></path><path d="M131.427 463.28H211.067C214.358 463.28 214.358 458.176 211.067 458.176H131.427C128.135 458.176 128.135 463.28 131.427 463.28Z" fill="black"></path><path d="M131.427 493.4H213.072C216.364 493.4 216.364 488.296 213.072 488.296H131.427C128.135 488.296 128.135 493.4 131.427 493.4Z" fill="black"></path><path d="M131.427 523.52H214.411C217.702 523.52 217.702 518.416 214.411 518.416H131.427C128.135 518.416 128.135 523.52 131.427 523.52Z" fill="black"></path><path d="M131.427 607.173H211.733C215.025 607.173 215.025 602.069 211.733 602.069H131.427C128.135 602.069 128.135 607.173 131.427 607.173Z" fill="black"></path><path d="M131.427 637.28H209.729C213.021 637.28 213.021 632.176 209.729 632.176H131.427C128.135 632.176 128.135 637.28 131.427 637.28Z" fill="black"></path><path d="M131.427 667.4H204.375C207.666 667.4 207.666 662.296 204.375 662.296H131.427C128.135 662.296 128.135 667.4 131.427 667.4Z" fill="black"></path><path d="M131.427 254.493H160.203C163.494 254.493 163.494 249.389 160.203 249.389H131.427C128.135 249.389 128.135 254.493 131.427 254.493Z" fill="black"></path><path d="M342.027 705.333C341.693 709.849 337.167 709.141 334.021 709.141H320.485H271.683H132.363H23.5188H13.175H11.6438C6.37821 709.141 7.03449 701.526 12.0553 701.526H36.6433H158.914H292.554H326.346H335.513C338.362 701.526 341.737 701.292 342.033 705.334C342.273 708.594 347.377 708.62 347.138 705.334C346.658 698.797 341.643 696.422 335.94 696.422H324.507H278.758H140.891H27.3074H14.8126C10.3856 696.422 6.49487 696.771 3.7918 701.12C0.229271 706.849 5.38034 714.24 11.6615 714.24H13.297H23.823H133.078H272.291H320.848H334.212C337.322 714.24 340.113 714.458 342.983 712.87C345.712 711.36 346.926 708.266 347.139 705.334C347.374 702.047 342.27 702.073 342.03 705.334L342.027 705.333Z" fill="black"></path></svg>